<mxfile host="app.diagrams.net" agent="Mozilla/5.0 (Windows NT 10.0; Win64; x64) AppleWebKit/537.36 (KHTML, like Gecko) Chrome/126.0.0.0 Safari/537.36 OPR/112.0.0.0" version="24.7.12">
  <diagram name="PÃ¡gina-1" id="qIUm-NXkEGmmr5HEpveH">
    <mxGraphModel grid="1" page="1" gridSize="10" guides="1" tooltips="1" connect="1" arrows="1" fold="1" pageScale="1" pageWidth="827" pageHeight="1169" math="0" shadow="0">
      <root>
        <mxCell id="0" />
        <mxCell id="1" parent="0" />
        <mxCell id="wsyl__wpP291152e83Fh-2" value="&lt;div&gt;&lt;br&gt;&lt;/div&gt;" style="rounded=0;whiteSpace=wrap;html=1;" vertex="1" parent="1">
          <mxGeometry x="229" y="140" width="671" height="230" as="geometry" />
        </mxCell>
        <mxCell id="syUm3DsR0cCa5fwL_SAr-3" style="edgeStyle=orthogonalEdgeStyle;rounded=0;orthogonalLoop=1;jettySize=auto;html=1;exitX=0.5;exitY=0.5;exitDx=0;exitDy=0;exitPerimeter=0;entryX=0;entryY=0.5;entryDx=0;entryDy=0;" edge="1" parent="1" source="wsyl__wpP291152e83Fh-1" target="wsyl__wpP291152e83Fh-3">
          <mxGeometry relative="1" as="geometry" />
        </mxCell>
        <mxCell id="wsyl__wpP291152e83Fh-1" value="Usuario Administrador" style="shape=umlActor;verticalLabelPosition=bottom;verticalAlign=top;html=1;outlineConnect=0;" vertex="1" parent="1">
          <mxGeometry x="110" y="225" width="30" height="60" as="geometry" />
        </mxCell>
        <mxCell id="syUm3DsR0cCa5fwL_SAr-4" style="edgeStyle=orthogonalEdgeStyle;rounded=0;orthogonalLoop=1;jettySize=auto;html=1;" edge="1" parent="1" source="wsyl__wpP291152e83Fh-3" target="wsyl__wpP291152e83Fh-5">
          <mxGeometry relative="1" as="geometry" />
        </mxCell>
        <mxCell id="wsyl__wpP291152e83Fh-3" value="Generar Informes" style="ellipse;whiteSpace=wrap;html=1;" vertex="1" parent="1">
          <mxGeometry x="250" y="215" width="120" height="80" as="geometry" />
        </mxCell>
        <mxCell id="syUm3DsR0cCa5fwL_SAr-5" style="edgeStyle=orthogonalEdgeStyle;rounded=0;orthogonalLoop=1;jettySize=auto;html=1;" edge="1" parent="1" source="wsyl__wpP291152e83Fh-5" target="wsyl__wpP291152e83Fh-6">
          <mxGeometry relative="1" as="geometry" />
        </mxCell>
        <mxCell id="wsyl__wpP291152e83Fh-5" value="Identificar Jugadores" style="ellipse;whiteSpace=wrap;html=1;" vertex="1" parent="1">
          <mxGeometry x="420" y="215" width="120" height="80" as="geometry" />
        </mxCell>
        <mxCell id="syUm3DsR0cCa5fwL_SAr-11" style="edgeStyle=orthogonalEdgeStyle;rounded=0;orthogonalLoop=1;jettySize=auto;html=1;entryX=0;entryY=0.5;entryDx=0;entryDy=0;" edge="1" parent="1" source="wsyl__wpP291152e83Fh-6" target="syUm3DsR0cCa5fwL_SAr-10">
          <mxGeometry relative="1" as="geometry" />
        </mxCell>
        <mxCell id="wsyl__wpP291152e83Fh-6" value="Enviar Avisos" style="ellipse;whiteSpace=wrap;html=1;" vertex="1" parent="1">
          <mxGeometry x="590" y="215" width="120" height="80" as="geometry" />
        </mxCell>
        <mxCell id="syUm3DsR0cCa5fwL_SAr-6" value="Usuario" style="shape=umlActor;verticalLabelPosition=bottom;verticalAlign=top;html=1;outlineConnect=0;" vertex="1" parent="1">
          <mxGeometry x="635" y="440" width="30" height="60" as="geometry" />
        </mxCell>
        <mxCell id="syUm3DsR0cCa5fwL_SAr-7" style="edgeStyle=orthogonalEdgeStyle;rounded=0;orthogonalLoop=1;jettySize=auto;html=1;entryX=0.5;entryY=0;entryDx=0;entryDy=0;entryPerimeter=0;" edge="1" parent="1" source="wsyl__wpP291152e83Fh-6" target="syUm3DsR0cCa5fwL_SAr-6">
          <mxGeometry relative="1" as="geometry" />
        </mxCell>
        <mxCell id="syUm3DsR0cCa5fwL_SAr-8" value="Recibe Aviso" style="edgeLabel;html=1;align=center;verticalAlign=middle;resizable=0;points=[];" connectable="0" vertex="1" parent="syUm3DsR0cCa5fwL_SAr-7">
          <mxGeometry x="0.3241" y="2" relative="1" as="geometry">
            <mxPoint as="offset" />
          </mxGeometry>
        </mxCell>
        <mxCell id="syUm3DsR0cCa5fwL_SAr-10" value="Registro de Avisos" style="ellipse;whiteSpace=wrap;html=1;" vertex="1" parent="1">
          <mxGeometry x="760" y="215" width="120" height="80" as="geometry" />
        </mxCell>
      </root>
    </mxGraphModel>
  </diagram>
</mxfile>
